<svg xmlns="http://www.w3.org/2000/svg" xml:space="preserve" width="64" height="64" version="1.0" viewBox="0 0 128 128"><g><linearGradient id="a"><stop offset="0%"/><stop offset="100%" stop-color="#0090fe"/></linearGradient><linearGradient id="b"><stop offset="0%"/><stop offset="100%" stop-color="#90e6fe"/></linearGradient><path fill="url(#a)" fill-rule="evenodd" d="M64 .98A63.02 63.02 0 1 1 .98 64 63.02 63.02 0 0 1 64 .98zm0 15.76A47.26 47.26 0 1 1 16.74 64 47.26 47.26 0 0 1 64 16.74z"/><path fill="url(#b)" fill-rule="evenodd" d="M64.12 125.54A61.54 61.54 0 1 1 125.66 64a61.54 61.54 0 0 1-61.54 61.54zm0-121.1A59.57 59.57 0 1 0 123.7 64 59.57 59.57 0 0 0 64.1 4.43zM64 115.56a51.7 51.7 0 1 1 51.7-51.7 51.7 51.7 0 0 1-51.7 51.7zM64 14.4a49.48 49.48 0 1 0 49.48 49.48A49.48 49.48 0 0 0 64 14.4z"/><animateTransform attributeName="transform" dur="1800ms" from="0 64 64" repeatCount="indefinite" to="360 64 64" type="rotate"/></g></svg>